<?xml version="1.0" encoding="UTF-8" standalone="no"?><!DOCTYPE svg PUBLIC "-//W3C//DTD SVG 1.1//EN" "http://www.w3.org/Graphics/SVG/1.1/DTD/svg11.dtd"><svg width="100%" height="100%" viewBox="0 0 20 20" version="1.1" xmlns="http://www.w3.org/2000/svg" xmlns:xlink="http://www.w3.org/1999/xlink" xml:space="preserve" xmlns:serif="http://www.serif.com/" style="fill-rule:evenodd;clip-rule:evenodd;stroke-linejoin:round;stroke-miterlimit:1.41421;"><rect x="8.491" y="2.5" width="2.009" height="1"/><path d="M10.5,3.491l1,0l0,4.009l3,0l0,0.976l-1,0l0,2.024l-1,0l0,-2.024l-1,0l0,2.024l-1,0l0,-7.009Z"/><path d="M16.5,9.476l-1,0l0,2.024l-1,0l0,-3.024l2,0l0,1Z"/><rect x="16.5" y="9.5" width="1" height="5"/><rect x="15.5" y="14.5" width="1" height="3"/><rect x="7.5" y="15.5" width="1" height="2"/><rect x="6.5" y="13.5" width="1" height="2"/><rect x="4.5" y="10.5" width="1" height="2"/><rect x="5.5" y="12.5" width="1" height="1"/><rect x="3.5" y="9.5" width="1" height="1"/><rect x="2.5" y="8.5" width="1" height="1"/><rect x="3.5" y="7.5" width="2" height="1"/><path d="M8.5,3.5l0,9l-1,0l0,-2l-1,0l0,-1l1,0l0,-6l1,0Z"/><rect x="5.5" y="8.476" width="1" height="1.024"/><g id="Layer1"></g></svg>