<?xml version="1.0" encoding="UTF-8" standalone="no"?><!DOCTYPE svg PUBLIC "-//W3C//DTD SVG 1.1//EN" "http://www.w3.org/Graphics/SVG/1.1/DTD/svg11.dtd"><svg width="100%" height="100%" viewBox="0 0 20 20" version="1.1" xmlns="http://www.w3.org/2000/svg" xmlns:xlink="http://www.w3.org/1999/xlink" xml:space="preserve" xmlns:serif="http://www.serif.com/" style="fill-rule:evenodd;clip-rule:evenodd;stroke-linejoin:round;stroke-miterlimit:1.41421;"><g id="Layer1"></g><g><path d="M12,9l3,0l0,6l-1,0l0,-3l-7,0l0,3l-1,0l0,-6l3,0l0,-7l3,0l0,7Zm-5,1l0,1l7,0l0,-1l-7,0Zm3,-7l0,1l1,0l0,-1l-1,0Z"/><path d="M14,15l0,2l-10,0l0,-1l1,0l0,-1l1,0l0,1l1,0l0,-1l1,0l0,1l1,0l0,-1l1,0l0,1l1,0l0,-1l1,0l0,1l1,0l0,-1l1,0Z"/><rect x="8" y="14" width="1" height="1"/><rect x="10" y="14" width="1" height="1"/><rect x="12" y="14" width="1" height="1"/></g></svg>