<?xml version="1.0" encoding="UTF-8" standalone="no"?><!DOCTYPE svg PUBLIC "-//W3C//DTD SVG 1.1//EN" "http://www.w3.org/Graphics/SVG/1.1/DTD/svg11.dtd"><svg width="100%" height="100%" viewBox="0 0 20 20" version="1.1" xmlns="http://www.w3.org/2000/svg" xmlns:xlink="http://www.w3.org/1999/xlink" xml:space="preserve" xmlns:serif="http://www.serif.com/" style="fill-rule:evenodd;clip-rule:evenodd;stroke-linejoin:round;stroke-miterlimit:1.41421;"><g id="Layer1"></g><rect x="4.5" y="9" width="1" height="1"/><rect x="5.5" y="8" width="1" height="1"/><rect x="6.5" y="7" width="1" height="1"/><rect x="7.5" y="6" width="1" height="1"/><rect x="8.5" y="5" width="1" height="1"/><rect x="9.5" y="4" width="1" height="1"/><rect x="9.5" y="10" width="1" height="1"/><rect x="10.5" y="9" width="1" height="1"/><rect x="11.5" y="8" width="1" height="1"/><rect x="12.5" y="7" width="1" height="1"/><rect x="13.5" y="6" width="1" height="1"/><path d="M16.5,5l1,0l0,2l-1,0l0,1l-1,0l0,1l-1,0l0,1l-1,0l0,1l-1,0l0,1l-1,0l0,1l-1,0l0,1l-1,0l0,1l-7,0l0,-4l1,0l0,-1l1,0l0,1l5,0l0,1l1,0l0,-1l1,0l0,-1l1,0l0,-1l1,0l0,-1l1,0l0,-1l1,0l0,-1l-1,0l0,-1l1,0l0,-1l-5,0l0,-1l6,0l0,2Zm-8,7l-5,0l0,2l5,0l0,-2Z"/></svg>