<?xml version="1.0" encoding="UTF-8" standalone="no"?><!DOCTYPE svg PUBLIC "-//W3C//DTD SVG 1.1//EN" "http://www.w3.org/Graphics/SVG/1.1/DTD/svg11.dtd"><svg width="100%" height="100%" viewBox="0 0 20 20" version="1.1" xmlns="http://www.w3.org/2000/svg" xmlns:xlink="http://www.w3.org/1999/xlink" xml:space="preserve" xmlns:serif="http://www.serif.com/" style="fill-rule:evenodd;clip-rule:evenodd;stroke-linejoin:round;stroke-miterlimit:1.41421;"><g id="Layer1"></g><g><path d="M17.5,4l-15,0l0,11l15,0l0,-11Zm1,-0.5l0,12.5l-17,0l0,-1l0,-11l0,-1l17,0l0,0.5Z"/><rect x="3.5" y="6" width="1" height="1"/><rect x="3.5" y="9" width="1" height="1"/><rect x="3.5" y="12" width="1" height="1"/><rect x="7.5" y="6" width="1" height="1"/><rect x="7.5" y="9" width="1" height="1"/><rect x="7.5" y="12" width="1" height="1"/><rect x="13.5" y="6" width="1" height="1"/><rect x="13.5" y="9" width="1" height="1"/><rect x="13.5" y="12" width="1" height="1"/><rect x="5.5" y="6" width="1" height="1"/><rect x="5.5" y="9" width="1" height="1"/><rect x="5.5" y="12" width="1" height="1"/><rect x="11.5" y="6" width="1" height="1"/><rect x="11.5" y="9" width="1" height="1"/><rect x="11.5" y="12" width="1" height="1"/><rect x="9.5" y="6" width="1" height="1"/><rect x="9.5" y="9" width="1" height="1"/><rect x="9.5" y="12" width="1" height="1"/><rect x="15.5" y="6" width="1" height="1"/><rect x="15.5" y="9" width="1" height="1"/><rect x="15.5" y="12" width="1" height="1"/></g></svg>