<?xml version="1.0" encoding="UTF-8" standalone="no"?><!DOCTYPE svg PUBLIC "-//W3C//DTD SVG 1.1//EN" "http://www.w3.org/Graphics/SVG/1.1/DTD/svg11.dtd"><svg width="100%" height="100%" viewBox="0 0 20 20" version="1.1" xmlns="http://www.w3.org/2000/svg" xmlns:xlink="http://www.w3.org/1999/xlink" xml:space="preserve" xmlns:serif="http://www.serif.com/" style="fill-rule:evenodd;clip-rule:evenodd;stroke-linejoin:round;stroke-miterlimit:1.41421;"><g id="Layer1"></g><rect x="7.5" y="4" width="7" height="1"/><rect x="4.5" y="5" width="3" height="1"/><rect x="14.5" y="5" width="2" height="1"/><rect x="3.5" y="6" width="1" height="1"/><rect x="2.5" y="7" width="1" height="1"/><rect x="1.5" y="8" width="1" height="3"/><rect x="16.5" y="6" width="1" height="3"/><rect x="14.5" y="9" width="2" height="1"/><rect x="11.5" y="10" width="3" height="1"/><rect x="8.5" y="11" width="3" height="1"/><path d="M5.5,12l3,0l0,1l-2,0l0,1l-1,0l0,-2Z"/><path d="M5.5,14l0,3l-1,0l0,-2l-2,0l0,-1l1,0l0,-1l1,0l0,1l1,0Z"/><rect x="3.5" y="17" width="1" height="1"/><path d="M1.5,12l1,0l0,-0.5l0,-0.5l3,0l0,1l-2,0l0,1l-1,0l0,1l-1,0l0,-2Z"/></svg>