<?xml version="1.0" encoding="UTF-8" standalone="no"?><!DOCTYPE svg PUBLIC "-//W3C//DTD SVG 1.1//EN" "http://www.w3.org/Graphics/SVG/1.1/DTD/svg11.dtd"><svg width="100%" height="100%" viewBox="0 0 20 20" version="1.1" xmlns="http://www.w3.org/2000/svg" xmlns:xlink="http://www.w3.org/1999/xlink" xml:space="preserve" xmlns:serif="http://www.serif.com/" style="fill-rule:evenodd;clip-rule:evenodd;stroke-linejoin:round;stroke-miterlimit:1.41421;"><g id="Layer1"></g><g><path d="M3,5l3,0l0,1l-2,0l0,2l-1,0l0,-3Z"/><path d="M18,17l-3,0l0,-1l2,0l0,-2l1,0l0,3Z"/><rect x="8" y="5" width="5" height="1"/><rect x="8" y="16" width="5" height="1"/><path d="M3,14l1,0l0,2l2,0l0,1l-3,0l0,-3Z"/><path d="M18,8l-1,0l0,-2l-2,0l0,-1l3,0l0,3Z"/><rect x="3" y="10" width="1" height="2"/><rect x="17" y="10" width="1" height="2"/></g></svg>