<?xml version="1.0" encoding="UTF-8" standalone="no"?><!DOCTYPE svg PUBLIC "-//W3C//DTD SVG 1.1//EN" "http://www.w3.org/Graphics/SVG/1.1/DTD/svg11.dtd"><svg width="100%" height="100%" viewBox="0 0 20 20" version="1.1" xmlns="http://www.w3.org/2000/svg" xmlns:xlink="http://www.w3.org/1999/xlink" xml:space="preserve" xmlns:serif="http://www.serif.com/" style="fill-rule:evenodd;clip-rule:evenodd;stroke-linejoin:round;stroke-miterlimit:1.41421;"><g id="Layer1"></g><path d="M13.5,4l-3,0l0,1l-1,0l0,-2l4,0l0,1Z"/><rect x="13.5" y="4" width="1" height="2"/><path d="M8.5,5l1,0l0,1l1,0l0,1l-2,0l0,-2Z"/><rect x="7.5" y="7" width="1" height="2"/><rect x="6.5" y="9" width="1" height="2"/><rect x="5.5" y="11" width="1" height="2"/><path d="M10.5,7l2,0l0,-1l1,0l0,2l-1,0l0,2l-1,0l0,-2l-1,0l0,-1Z"/><rect x="10.5" y="10" width="1" height="2"/><rect x="9.5" y="12" width="1" height="2"/><rect x="8.5" y="14" width="1" height="1"/><path d="M4.5,13l1,0l0,2l3,0l0,1l-1.25,0l0,1l-0.75,0l0,1l-1,0l0,1l-1,0l0,-6Z"/></svg>